<mxfile host="app.diagrams.net" modified="2022-10-31T15:21:21.714Z" agent="5.0 (Macintosh; Intel Mac OS X 10_15_7) AppleWebKit/537.36 (KHTML, like Gecko) Chrome/106.0.0.0 Safari/537.36" etag="yX9imPJ4IRkoOPaUuSde" version="20.5.1" type="github" pages="2">
  <diagram id="OJz4E1NRxtN7s5ljRPHN" name="Page-1">
    <mxGraphModel dx="964" dy="962" grid="1" gridSize="10" guides="1" tooltips="1" connect="1" arrows="1" fold="1" page="1" pageScale="1" pageWidth="850" pageHeight="1100" math="0" shadow="0">
      <root>
        <mxCell id="0" />
        <mxCell id="1" parent="0" />
        <mxCell id="JU56AjL8CDwlq6coQP9D-2" value="CRIF2" style="swimlane;fontStyle=0;childLayout=stackLayout;horizontal=1;startSize=30;horizontalStack=0;resizeParent=1;resizeParentMax=0;resizeLast=0;collapsible=1;marginBottom=0;" parent="1" vertex="1">
          <mxGeometry x="330" y="200" width="190" height="100" as="geometry" />
        </mxCell>
        <mxCell id="JU56AjL8CDwlq6coQP9D-3" value="Main transactional store and user&#xa;for DataLENS.&#xa;Central Hub for CRI DataLENS &#xa;information" style="text;strokeColor=none;fillColor=none;align=left;verticalAlign=middle;spacingLeft=4;spacingRight=4;overflow=hidden;points=[[0,0.5],[1,0.5]];portConstraint=eastwest;rotatable=0;" parent="JU56AjL8CDwlq6coQP9D-2" vertex="1">
          <mxGeometry y="30" width="190" height="70" as="geometry" />
        </mxCell>
        <mxCell id="JU56AjL8CDwlq6coQP9D-6" value="CRIF2_API" style="swimlane;fontStyle=0;childLayout=stackLayout;horizontal=1;startSize=30;horizontalStack=0;resizeParent=1;resizeParentMax=0;resizeLast=0;collapsible=1;marginBottom=0;" parent="1" vertex="1">
          <mxGeometry x="70" y="130" width="170" height="140" as="geometry" />
        </mxCell>
        <mxCell id="JU56AjL8CDwlq6coQP9D-7" value="User and Synonyms for &#xa;Trusted Access to CRIF2&#xa;for API calls &#xa;(DataLENS V2 Web Service)" style="text;strokeColor=none;fillColor=none;align=left;verticalAlign=middle;spacingLeft=4;spacingRight=4;overflow=hidden;points=[[0,0.5],[1,0.5]];portConstraint=eastwest;rotatable=0;" parent="JU56AjL8CDwlq6coQP9D-6" vertex="1">
          <mxGeometry y="30" width="170" height="110" as="geometry" />
        </mxCell>
        <mxCell id="JU56AjL8CDwlq6coQP9D-10" value="CRIF2_UWS" style="swimlane;fontStyle=0;childLayout=stackLayout;horizontal=1;startSize=30;horizontalStack=0;resizeParent=1;resizeParentMax=0;resizeLast=0;collapsible=1;marginBottom=0;" parent="1" vertex="1">
          <mxGeometry x="70" y="330" width="170" height="120" as="geometry" />
        </mxCell>
        <mxCell id="JU56AjL8CDwlq6coQP9D-11" value="User and Synonyms for &#xa;Open/Public Access to &#xa;CRIF2 data" style="text;strokeColor=none;fillColor=none;align=left;verticalAlign=middle;spacingLeft=4;spacingRight=4;overflow=hidden;points=[[0,0.5],[1,0.5]];portConstraint=eastwest;rotatable=0;" parent="JU56AjL8CDwlq6coQP9D-10" vertex="1">
          <mxGeometry y="30" width="170" height="90" as="geometry" />
        </mxCell>
        <mxCell id="JU56AjL8CDwlq6coQP9D-14" value="CRIF2_STG" style="swimlane;fontStyle=0;childLayout=stackLayout;horizontal=1;startSize=30;horizontalStack=0;resizeParent=1;resizeParentMax=0;resizeLast=0;collapsible=1;marginBottom=0;" parent="1" vertex="1">
          <mxGeometry x="200" y="540" width="210" height="90" as="geometry" />
        </mxCell>
        <mxCell id="JU56AjL8CDwlq6coQP9D-15" value="Staging Schema for any data coming&#xa;in to CRIF2 that requires ETL" style="text;strokeColor=none;fillColor=none;align=left;verticalAlign=middle;spacingLeft=4;spacingRight=4;overflow=hidden;points=[[0,0.5],[1,0.5]];portConstraint=eastwest;rotatable=0;" parent="JU56AjL8CDwlq6coQP9D-14" vertex="1">
          <mxGeometry y="30" width="210" height="60" as="geometry" />
        </mxCell>
        <mxCell id="JU56AjL8CDwlq6coQP9D-18" value="CRIF2_IO" style="swimlane;fontStyle=0;childLayout=stackLayout;horizontal=1;startSize=30;horizontalStack=0;resizeParent=1;resizeParentMax=0;resizeLast=0;collapsible=1;marginBottom=0;" parent="1" vertex="1">
          <mxGeometry x="200" y="690" width="210" height="90" as="geometry" />
        </mxCell>
        <mxCell id="JU56AjL8CDwlq6coQP9D-19" value="Staging Schema for any data coming&#xa;in to CRIF2 that does not require ETL, &#xa;i.e. trusted data from i2b2, etc." style="text;strokeColor=none;fillColor=none;align=left;verticalAlign=middle;spacingLeft=4;spacingRight=4;overflow=hidden;points=[[0,0.5],[1,0.5]];portConstraint=eastwest;rotatable=0;" parent="JU56AjL8CDwlq6coQP9D-18" vertex="1">
          <mxGeometry y="30" width="210" height="60" as="geometry" />
        </mxCell>
        <mxCell id="JU56AjL8CDwlq6coQP9D-20" value="CRIF2_ENV" style="swimlane;fontStyle=0;childLayout=stackLayout;horizontal=1;startSize=30;horizontalStack=0;resizeParent=1;resizeParentMax=0;resizeLast=0;collapsible=1;marginBottom=0;" parent="1" vertex="1">
          <mxGeometry x="610" y="130" width="170" height="140" as="geometry" />
        </mxCell>
        <mxCell id="JU56AjL8CDwlq6coQP9D-21" value="Environment settings for &#xa;DataLENS, such as Paths, &#xa;Environment Variables, &#xa;AppSettings, Version Info, etc." style="text;strokeColor=none;fillColor=none;align=left;verticalAlign=middle;spacingLeft=4;spacingRight=4;overflow=hidden;points=[[0,0.5],[1,0.5]];portConstraint=eastwest;rotatable=0;" parent="JU56AjL8CDwlq6coQP9D-20" vertex="1">
          <mxGeometry y="30" width="170" height="110" as="geometry" />
        </mxCell>
        <mxCell id="JU56AjL8CDwlq6coQP9D-22" value="CRIF2_RPTS" style="swimlane;fontStyle=0;childLayout=stackLayout;horizontal=1;startSize=30;horizontalStack=0;resizeParent=1;resizeParentMax=0;resizeLast=0;collapsible=1;marginBottom=0;" parent="1" vertex="1">
          <mxGeometry x="590" y="360" width="210" height="90" as="geometry" />
        </mxCell>
        <mxCell id="JU56AjL8CDwlq6coQP9D-23" value="Reporting and Metrics data and user,&#xa;DataLENS dashboard data, etc." style="text;strokeColor=none;fillColor=none;align=left;verticalAlign=middle;spacingLeft=4;spacingRight=4;overflow=hidden;points=[[0,0.5],[1,0.5]];portConstraint=eastwest;rotatable=0;" parent="JU56AjL8CDwlq6coQP9D-22" vertex="1">
          <mxGeometry y="30" width="210" height="60" as="geometry" />
        </mxCell>
        <mxCell id="JU56AjL8CDwlq6coQP9D-24" value="CRIF2_PHI" style="swimlane;fontStyle=0;childLayout=stackLayout;horizontal=1;startSize=30;horizontalStack=0;resizeParent=1;resizeParentMax=0;resizeLast=0;collapsible=1;marginBottom=0;" parent="1" vertex="1">
          <mxGeometry x="330" y="350" width="190" height="100" as="geometry" />
        </mxCell>
        <mxCell id="JU56AjL8CDwlq6coQP9D-25" value="PHI Data store for DataLENS.&#xa;" style="text;strokeColor=none;fillColor=none;align=left;verticalAlign=middle;spacingLeft=4;spacingRight=4;overflow=hidden;points=[[0,0.5],[1,0.5]];portConstraint=eastwest;rotatable=0;" parent="JU56AjL8CDwlq6coQP9D-24" vertex="1">
          <mxGeometry y="30" width="190" height="70" as="geometry" />
        </mxCell>
        <mxCell id="JU56AjL8CDwlq6coQP9D-26" value="CRIF2_RC" style="swimlane;fontStyle=0;childLayout=stackLayout;horizontal=1;startSize=30;horizontalStack=0;resizeParent=1;resizeParentMax=0;resizeLast=0;collapsible=1;marginBottom=0;" parent="1" vertex="1">
          <mxGeometry x="590" y="520" width="210" height="90" as="geometry" />
        </mxCell>
        <mxCell id="JU56AjL8CDwlq6coQP9D-27" value="Dedicated schema/user for UAB &#xa;Research Computing (Cheaha &#xa;access, etc.)" style="text;strokeColor=none;fillColor=none;align=left;verticalAlign=middle;spacingLeft=4;spacingRight=4;overflow=hidden;points=[[0,0.5],[1,0.5]];portConstraint=eastwest;rotatable=0;" parent="JU56AjL8CDwlq6coQP9D-26" vertex="1">
          <mxGeometry y="30" width="210" height="60" as="geometry" />
        </mxCell>
      </root>
    </mxGraphModel>
  </diagram>
  <diagram name="Copy of Page-1" id="iCe0q4KFhSxBiSJ1vBbM">
    <mxGraphModel dx="1142" dy="962" grid="1" gridSize="10" guides="1" tooltips="1" connect="1" arrows="1" fold="1" page="1" pageScale="1" pageWidth="1100" pageHeight="850" math="0" shadow="0">
      <root>
        <mxCell id="Q0df7IfdMo-g2zNULpji-0" />
        <mxCell id="Q0df7IfdMo-g2zNULpji-1" parent="Q0df7IfdMo-g2zNULpji-0" />
        <mxCell id="fUj6VVraK2hkdUocLC9V-0" value="Main CRI Data Stores for DataLENS" style="swimlane;horizontal=0;fillColor=#f5f5f5;strokeColor=#666666;fontColor=#333333;" vertex="1" parent="Q0df7IfdMo-g2zNULpji-1">
          <mxGeometry x="60" y="80" width="1025" height="220" as="geometry" />
        </mxCell>
        <mxCell id="Q0df7IfdMo-g2zNULpji-2" value="CRIF2" style="swimlane;fontStyle=0;childLayout=stackLayout;horizontal=1;startSize=30;horizontalStack=0;resizeParent=1;resizeParentMax=0;resizeLast=0;collapsible=1;marginBottom=0;fillColor=#d5e8d4;strokeColor=#82b366;" vertex="1" parent="fUj6VVraK2hkdUocLC9V-0">
          <mxGeometry x="60" y="60" width="190" height="100" as="geometry" />
        </mxCell>
        <mxCell id="Q0df7IfdMo-g2zNULpji-3" value="Main transactional store and user&#xa;for DataLENS.&#xa;Central Hub for CRI DataLENS &#xa;information" style="text;strokeColor=none;fillColor=none;align=left;verticalAlign=middle;spacingLeft=4;spacingRight=4;overflow=hidden;points=[[0,0.5],[1,0.5]];portConstraint=eastwest;rotatable=0;" vertex="1" parent="Q0df7IfdMo-g2zNULpji-2">
          <mxGeometry y="30" width="190" height="70" as="geometry" />
        </mxCell>
        <mxCell id="Q0df7IfdMo-g2zNULpji-16" value="CRIF2_PHI" style="swimlane;fontStyle=0;childLayout=stackLayout;horizontal=1;startSize=30;horizontalStack=0;resizeParent=1;resizeParentMax=0;resizeLast=0;collapsible=1;marginBottom=0;fillColor=#d5e8d4;strokeColor=#82b366;" vertex="1" parent="fUj6VVraK2hkdUocLC9V-0">
          <mxGeometry x="297.5" y="60" width="190" height="100" as="geometry" />
        </mxCell>
        <mxCell id="Q0df7IfdMo-g2zNULpji-17" value="PHI Data store for DataLENS.&#xa;" style="text;strokeColor=none;fillColor=none;align=left;verticalAlign=middle;spacingLeft=4;spacingRight=4;overflow=hidden;points=[[0,0.5],[1,0.5]];portConstraint=eastwest;rotatable=0;" vertex="1" parent="Q0df7IfdMo-g2zNULpji-16">
          <mxGeometry y="30" width="190" height="70" as="geometry" />
        </mxCell>
        <mxCell id="Q0df7IfdMo-g2zNULpji-12" value="CRIF2_ENV" style="swimlane;fontStyle=0;childLayout=stackLayout;horizontal=1;startSize=30;horizontalStack=0;resizeParent=1;resizeParentMax=0;resizeLast=0;collapsible=1;marginBottom=0;fillColor=#d5e8d4;strokeColor=#82b366;" vertex="1" parent="fUj6VVraK2hkdUocLC9V-0">
          <mxGeometry x="560" y="40" width="170" height="140" as="geometry" />
        </mxCell>
        <mxCell id="Q0df7IfdMo-g2zNULpji-13" value="Environment settings for &#xa;DataLENS, such as Paths, &#xa;Environment Variables, &#xa;AppSettings, Version Info, etc." style="text;strokeColor=none;fillColor=none;align=left;verticalAlign=middle;spacingLeft=4;spacingRight=4;overflow=hidden;points=[[0,0.5],[1,0.5]];portConstraint=eastwest;rotatable=0;" vertex="1" parent="Q0df7IfdMo-g2zNULpji-12">
          <mxGeometry y="30" width="170" height="110" as="geometry" />
        </mxCell>
        <mxCell id="Q0df7IfdMo-g2zNULpji-14" value="CRIF2_RPTS" style="swimlane;fontStyle=0;childLayout=stackLayout;horizontal=1;startSize=30;horizontalStack=0;resizeParent=1;resizeParentMax=0;resizeLast=0;collapsible=1;marginBottom=0;fillColor=#d5e8d4;strokeColor=#82b366;" vertex="1" parent="fUj6VVraK2hkdUocLC9V-0">
          <mxGeometry x="780" y="65" width="210" height="90" as="geometry" />
        </mxCell>
        <mxCell id="Q0df7IfdMo-g2zNULpji-15" value="Reporting and Metrics data and user,&#xa;DataLENS dashboard data, etc." style="text;strokeColor=none;fillColor=none;align=left;verticalAlign=middle;spacingLeft=4;spacingRight=4;overflow=hidden;points=[[0,0.5],[1,0.5]];portConstraint=eastwest;rotatable=0;" vertex="1" parent="Q0df7IfdMo-g2zNULpji-14">
          <mxGeometry y="30" width="210" height="60" as="geometry" />
        </mxCell>
        <mxCell id="fUj6VVraK2hkdUocLC9V-4" style="edgeStyle=orthogonalEdgeStyle;rounded=0;orthogonalLoop=1;jettySize=auto;html=1;exitX=0.5;exitY=0;exitDx=0;exitDy=0;startArrow=classic;startFill=1;entryX=0.75;entryY=1;entryDx=0;entryDy=0;strokeWidth=3;strokeColor=#CCCCCC;" edge="1" parent="Q0df7IfdMo-g2zNULpji-1" source="fUj6VVraK2hkdUocLC9V-2" target="fUj6VVraK2hkdUocLC9V-0">
          <mxGeometry relative="1" as="geometry">
            <mxPoint x="925" y="310" as="targetPoint" />
          </mxGeometry>
        </mxCell>
        <mxCell id="fUj6VVraK2hkdUocLC9V-2" value="Direct Schema Access" style="swimlane;fillColor=#f5f5f5;fontColor=#333333;strokeColor=#666666;" vertex="1" parent="Q0df7IfdMo-g2zNULpji-1">
          <mxGeometry x="780" y="390" width="290" height="310" as="geometry" />
        </mxCell>
        <mxCell id="Q0df7IfdMo-g2zNULpji-8" value="CRIF2_STG" style="swimlane;fontStyle=0;childLayout=stackLayout;horizontal=1;startSize=30;horizontalStack=0;resizeParent=1;resizeParentMax=0;resizeLast=0;collapsible=1;marginBottom=0;fillColor=#e1d5e7;strokeColor=#9673a6;" vertex="1" parent="fUj6VVraK2hkdUocLC9V-2">
          <mxGeometry x="40" y="190" width="210" height="90" as="geometry" />
        </mxCell>
        <mxCell id="Q0df7IfdMo-g2zNULpji-9" value="Staging Schema for any data coming&#xa;in to CRIF2 that requires ETL" style="text;strokeColor=none;fillColor=none;align=left;verticalAlign=middle;spacingLeft=4;spacingRight=4;overflow=hidden;points=[[0,0.5],[1,0.5]];portConstraint=eastwest;rotatable=0;" vertex="1" parent="Q0df7IfdMo-g2zNULpji-8">
          <mxGeometry y="30" width="210" height="60" as="geometry" />
        </mxCell>
        <mxCell id="Q0df7IfdMo-g2zNULpji-10" value="CRIF2_IO" style="swimlane;fontStyle=0;childLayout=stackLayout;horizontal=1;startSize=30;horizontalStack=0;resizeParent=1;resizeParentMax=0;resizeLast=0;collapsible=1;marginBottom=0;fillColor=#e1d5e7;strokeColor=#9673a6;" vertex="1" parent="fUj6VVraK2hkdUocLC9V-2">
          <mxGeometry x="40" y="60" width="210" height="90" as="geometry" />
        </mxCell>
        <mxCell id="Q0df7IfdMo-g2zNULpji-11" value="Staging Schema for any data coming&#xa;in to CRIF2 that does not require ETL, &#xa;i.e. trusted data from i2b2, etc." style="text;strokeColor=none;fillColor=none;align=left;verticalAlign=middle;spacingLeft=4;spacingRight=4;overflow=hidden;points=[[0,0.5],[1,0.5]];portConstraint=eastwest;rotatable=0;" vertex="1" parent="Q0df7IfdMo-g2zNULpji-10">
          <mxGeometry y="30" width="210" height="60" as="geometry" />
        </mxCell>
        <mxCell id="fUj6VVraK2hkdUocLC9V-5" style="edgeStyle=orthogonalEdgeStyle;rounded=0;orthogonalLoop=1;jettySize=auto;html=1;exitX=0.5;exitY=0;exitDx=0;exitDy=0;startArrow=classic;startFill=1;entryX=0.25;entryY=1;entryDx=0;entryDy=0;strokeWidth=3;strokeColor=#CCCCCC;" edge="1" parent="Q0df7IfdMo-g2zNULpji-1" source="fUj6VVraK2hkdUocLC9V-3" target="fUj6VVraK2hkdUocLC9V-0">
          <mxGeometry relative="1" as="geometry">
            <mxPoint x="400" y="280" as="targetPoint" />
          </mxGeometry>
        </mxCell>
        <mxCell id="fUj6VVraK2hkdUocLC9V-3" value="Web Service API" style="swimlane;fillColor=#f5f5f5;fontColor=#333333;strokeColor=#666666;" vertex="1" parent="Q0df7IfdMo-g2zNULpji-1">
          <mxGeometry x="45" y="390" width="695" height="250" as="geometry" />
        </mxCell>
        <mxCell id="Q0df7IfdMo-g2zNULpji-4" value="CRIF2_API" style="swimlane;fontStyle=0;childLayout=stackLayout;horizontal=1;startSize=30;horizontalStack=0;resizeParent=1;resizeParentMax=0;resizeLast=0;collapsible=1;marginBottom=0;fillColor=#dae8fc;strokeColor=#6c8ebf;" vertex="1" parent="fUj6VVraK2hkdUocLC9V-3">
          <mxGeometry x="45" y="60" width="170" height="140" as="geometry" />
        </mxCell>
        <mxCell id="Q0df7IfdMo-g2zNULpji-5" value="User and Synonyms for &#xa;Trusted Access to CRIF2&#xa;for API calls &#xa;(DataLENS V2 Web Service)" style="text;strokeColor=none;fillColor=none;align=left;verticalAlign=middle;spacingLeft=4;spacingRight=4;overflow=hidden;points=[[0,0.5],[1,0.5]];portConstraint=eastwest;rotatable=0;" vertex="1" parent="Q0df7IfdMo-g2zNULpji-4">
          <mxGeometry y="30" width="170" height="110" as="geometry" />
        </mxCell>
        <mxCell id="Q0df7IfdMo-g2zNULpji-6" value="CRIF2_UWS" style="swimlane;fontStyle=0;childLayout=stackLayout;horizontal=1;startSize=30;horizontalStack=0;resizeParent=1;resizeParentMax=0;resizeLast=0;collapsible=1;marginBottom=0;fillColor=#dae8fc;strokeColor=#6c8ebf;" vertex="1" parent="fUj6VVraK2hkdUocLC9V-3">
          <mxGeometry x="252.5" y="60" width="170" height="120" as="geometry" />
        </mxCell>
        <mxCell id="Q0df7IfdMo-g2zNULpji-7" value="User and Synonyms for &#xa;Open/Public Access to &#xa;CRIF2 data" style="text;strokeColor=none;fillColor=none;align=left;verticalAlign=middle;spacingLeft=4;spacingRight=4;overflow=hidden;points=[[0,0.5],[1,0.5]];portConstraint=eastwest;rotatable=0;" vertex="1" parent="Q0df7IfdMo-g2zNULpji-6">
          <mxGeometry y="30" width="170" height="90" as="geometry" />
        </mxCell>
        <mxCell id="Q0df7IfdMo-g2zNULpji-18" value="CRIF2_RC" style="swimlane;fontStyle=0;childLayout=stackLayout;horizontal=1;startSize=30;horizontalStack=0;resizeParent=1;resizeParentMax=0;resizeLast=0;collapsible=1;marginBottom=0;fillColor=#dae8fc;strokeColor=#6c8ebf;" vertex="1" parent="fUj6VVraK2hkdUocLC9V-3">
          <mxGeometry x="455" y="60" width="210" height="90" as="geometry" />
        </mxCell>
        <mxCell id="Q0df7IfdMo-g2zNULpji-19" value="Dedicated schema/user for UAB &#xa;Research Computing (Cheaha &#xa;access, etc.)" style="text;strokeColor=none;fillColor=none;align=left;verticalAlign=middle;spacingLeft=4;spacingRight=4;overflow=hidden;points=[[0,0.5],[1,0.5]];portConstraint=eastwest;rotatable=0;" vertex="1" parent="Q0df7IfdMo-g2zNULpji-18">
          <mxGeometry y="30" width="210" height="60" as="geometry" />
        </mxCell>
        <mxCell id="fUj6VVraK2hkdUocLC9V-7" style="edgeStyle=orthogonalEdgeStyle;rounded=0;orthogonalLoop=1;jettySize=auto;html=1;exitX=0.5;exitY=0;exitDx=0;exitDy=0;entryX=0.471;entryY=1;entryDx=0;entryDy=0;entryPerimeter=0;strokeColor=#CCCCCC;strokeWidth=3;startArrow=classic;startFill=1;" edge="1" parent="Q0df7IfdMo-g2zNULpji-1" source="fUj6VVraK2hkdUocLC9V-6" target="Q0df7IfdMo-g2zNULpji-5">
          <mxGeometry relative="1" as="geometry" />
        </mxCell>
        <mxCell id="fUj6VVraK2hkdUocLC9V-6" value="DataLENS&lt;br&gt;Web Application" style="rounded=1;whiteSpace=wrap;html=1;fillColor=#ffe6cc;strokeColor=#d79b00;" vertex="1" parent="Q0df7IfdMo-g2zNULpji-1">
          <mxGeometry x="110" y="700" width="120" height="60" as="geometry" />
        </mxCell>
        <mxCell id="fUj6VVraK2hkdUocLC9V-9" style="edgeStyle=orthogonalEdgeStyle;rounded=0;orthogonalLoop=1;jettySize=auto;html=1;exitX=0.5;exitY=0;exitDx=0;exitDy=0;entryX=0.485;entryY=1;entryDx=0;entryDy=0;entryPerimeter=0;strokeColor=#CCCCCC;strokeWidth=3;startArrow=classic;startFill=1;" edge="1" parent="Q0df7IfdMo-g2zNULpji-1" source="fUj6VVraK2hkdUocLC9V-8" target="Q0df7IfdMo-g2zNULpji-7">
          <mxGeometry relative="1" as="geometry" />
        </mxCell>
        <mxCell id="fUj6VVraK2hkdUocLC9V-8" value="External Consumer?" style="rounded=1;whiteSpace=wrap;html=1;fillColor=#ffe6cc;strokeColor=#d79b00;" vertex="1" parent="Q0df7IfdMo-g2zNULpji-1">
          <mxGeometry x="320" y="700" width="120" height="60" as="geometry" />
        </mxCell>
        <mxCell id="fUj6VVraK2hkdUocLC9V-11" style="edgeStyle=orthogonalEdgeStyle;rounded=0;orthogonalLoop=1;jettySize=auto;html=1;exitX=0.5;exitY=0;exitDx=0;exitDy=0;entryX=0.474;entryY=1;entryDx=0;entryDy=0;entryPerimeter=0;strokeColor=#CCCCCC;strokeWidth=3;startArrow=classic;startFill=1;" edge="1" parent="Q0df7IfdMo-g2zNULpji-1" source="fUj6VVraK2hkdUocLC9V-10" target="Q0df7IfdMo-g2zNULpji-19">
          <mxGeometry relative="1" as="geometry" />
        </mxCell>
        <mxCell id="fUj6VVraK2hkdUocLC9V-10" value="Cheaha" style="rounded=1;whiteSpace=wrap;html=1;fillColor=#ffe6cc;strokeColor=#d79b00;" vertex="1" parent="Q0df7IfdMo-g2zNULpji-1">
          <mxGeometry x="540" y="700" width="120" height="60" as="geometry" />
        </mxCell>
        <mxCell id="fUj6VVraK2hkdUocLC9V-15" style="rounded=0;orthogonalLoop=1;jettySize=auto;html=1;exitX=0.5;exitY=0;exitDx=0;exitDy=0;entryX=0;entryY=0.5;entryDx=0;entryDy=0;strokeColor=#CCCCCC;strokeWidth=3;startArrow=classic;startFill=1;" edge="1" parent="Q0df7IfdMo-g2zNULpji-1" source="fUj6VVraK2hkdUocLC9V-12" target="Q0df7IfdMo-g2zNULpji-11">
          <mxGeometry relative="1" as="geometry" />
        </mxCell>
        <mxCell id="fUj6VVraK2hkdUocLC9V-12" value="i2b2" style="rounded=1;whiteSpace=wrap;html=1;fillColor=#ffe6cc;strokeColor=#d79b00;" vertex="1" parent="Q0df7IfdMo-g2zNULpji-1">
          <mxGeometry x="710" y="730" width="120" height="60" as="geometry" />
        </mxCell>
        <mxCell id="fUj6VVraK2hkdUocLC9V-16" style="edgeStyle=none;rounded=0;orthogonalLoop=1;jettySize=auto;html=1;exitX=0.5;exitY=0;exitDx=0;exitDy=0;strokeColor=#CCCCCC;strokeWidth=3;startArrow=classic;startFill=1;" edge="1" parent="Q0df7IfdMo-g2zNULpji-1" source="fUj6VVraK2hkdUocLC9V-13">
          <mxGeometry relative="1" as="geometry">
            <mxPoint x="930" y="670" as="targetPoint" />
          </mxGeometry>
        </mxCell>
        <mxCell id="fUj6VVraK2hkdUocLC9V-13" value="OnCore" style="rounded=1;whiteSpace=wrap;html=1;fillColor=#ffe6cc;strokeColor=#d79b00;" vertex="1" parent="Q0df7IfdMo-g2zNULpji-1">
          <mxGeometry x="870" y="730" width="120" height="60" as="geometry" />
        </mxCell>
        <mxCell id="fUj6VVraK2hkdUocLC9V-17" style="edgeStyle=none;rounded=0;orthogonalLoop=1;jettySize=auto;html=1;exitX=0.5;exitY=0;exitDx=0;exitDy=0;strokeColor=#CCCCCC;strokeWidth=3;startArrow=classic;startFill=1;entryX=0.836;entryY=1.05;entryDx=0;entryDy=0;entryPerimeter=0;" edge="1" parent="Q0df7IfdMo-g2zNULpji-1" source="fUj6VVraK2hkdUocLC9V-14" target="Q0df7IfdMo-g2zNULpji-9">
          <mxGeometry relative="1" as="geometry">
            <mxPoint x="930" y="670" as="targetPoint" />
          </mxGeometry>
        </mxCell>
        <mxCell id="fUj6VVraK2hkdUocLC9V-14" value="IRAP" style="rounded=1;whiteSpace=wrap;html=1;fillColor=#ffe6cc;strokeColor=#d79b00;" vertex="1" parent="Q0df7IfdMo-g2zNULpji-1">
          <mxGeometry x="1020" y="730" width="120" height="60" as="geometry" />
        </mxCell>
      </root>
    </mxGraphModel>
  </diagram>
</mxfile>
